Coordinates
version=1
nRows=11
nColumns=36
inDegrees=yes

Units are S.I. units (second, meters, Newtons, ...)
If the header above contains a line with 'inDegrees', this indicates whether rotational values are in degrees (yes) or radians (no).

endheader
time	pelvis_tilt	pelvis_list	pelvis_rotation	pelvis_tx	pelvis_ty	pelvis_tz	hip_flexion_r	hip_adduction_r	hip_rotation_r	knee_angle_r	knee_angle_r_beta	ankle_angle_r	subtalar_angle_r	mtp_angle_r	hip_flexion_l	hip_adduction_l	hip_rotation_l	knee_angle_l	knee_angle_l_beta	ankle_angle_l	subtalar_angle_l	mtp_angle_l	lumbar_extension	lumbar_bending	lumbar_rotation	arm_flex_r	arm_add_r	arm_rot_r	elbow_flex_r	pro_sup_r	arm_flex_l	arm_add_l	arm_rot_l	elbow_flex_l	pro_sup_l
      0.00000000	      1.06911011	      1.39725976	     13.41901174	     -0.09014867	      1.30805673	      0.34355519	      0.84279860	     -3.77158261	      1.94420101	      6.75580104	      0.11791097	      4.85831241	    -11.10328261	     -7.05565382	      1.84184816	     -0.92401067	      0.33821470	      7.97315008	      0.13915772	      8.69646002	     -4.47893113	     -7.05565382	    -13.82231805	      0.39226553	      1.74107157	      6.63971786	     -7.98139009	     -0.82173211	     24.43553238	     95.16284680	     11.05116482	     -8.70127639	      3.90943037	     23.50532604	     96.81544307
      0.01666670	      0.28255583	      1.27091235	     12.06379300	     -0.08717475	      1.30581188	      0.34302827	      1.89072902	     -3.77377616	      3.76791947	      7.03696959	      0.12281829	      6.47311869	    -10.60736907	     -7.13949360	      2.31153623	     -0.78249329	     -0.48423280	      7.60026859	      0.13264971	      8.12007158	     -5.18474787	     -7.13949360	    -12.93811636	      0.53890811	      2.99028605	      6.76229420	     -8.15445090	      1.73626479	     23.84783889	     94.33672130	     10.00141985	     -8.11269067	      3.80446293	     23.99361569	     95.29305638
      0.03333330	      0.19310215	      1.41013308	     12.05870486	     -0.08671697	      1.30714083	      0.34297180	      1.82957670	     -3.97086289	      4.58352473	      6.71527576	      0.11720367	      6.26726880	    -11.14753372	     -7.19011679	      2.03529669	     -0.55970261	     -0.25441646	      6.24737467	      0.10903726	      7.09655036	     -5.68747107	     -7.19011679	    -13.35381976	      0.60040588	      3.01013563	      6.97408884	     -8.17296722	      3.52549115	     23.79564640	     94.31979313	      9.91069689	     -8.05121884	      4.06331624	     24.47149067	     95.04908856
      0.05000000	     -0.15565034	      1.43632991	     12.12337628	     -0.08665435	      1.30643340	      0.34284912	      2.06803429	     -4.28634987	      4.42968939	      6.43997008	      0.11239868	      6.67248819	    -10.39137026	     -7.26050411	      2.21533107	     -0.39629532	      0.36470840	      5.54285961	      0.09674115	      7.34334013	     -5.59014282	     -7.26050411	    -13.07440086	      0.80471887	      2.51883859	      7.44411469	     -8.05202809	      5.07324812	     23.52244078	     93.41829294	      9.61909453	     -8.09539989	      4.27078191	     24.53057745	     94.13277141
      0.06666670	     -0.30567193	      1.47260390	     12.27258937	     -0.08687367	      1.30678443	      0.34294186	      2.27438956	     -4.40309352	      4.43854865	      6.68076630	      0.11660137	      7.10153975	     -9.80697934	     -7.28304861	      2.45378052	     -0.31228408	      0.62009768	      5.49262550	      0.09586440	      7.43713188	     -5.49462954	     -7.28304861	    -13.19618743	      0.83721303	      2.46799889	      7.47586980	     -7.99898492	      5.23650512	     24.26282408	     92.36603358	      9.45024831	     -8.10237907	      4.22571820	     25.14970496	     93.21525962
      0.08333330	     -0.83785380	      1.48964914	     12.27658342	     -0.08703902	      1.30659876	      0.34324101	      3.17552372	     -4.57103233	      4.51623700	      7.32030958	      0.12776350	      7.38412788	     -9.27453565	     -7.37618272	      3.29306229	     -0.14934536	      0.77377017	      5.82860489	      0.10172835	      7.61941622	     -5.45772585	     -7.37618272	    -12.85513385	      0.72816709	      2.53990163	      7.45255730	     -7.96017335	      5.51761073	     24.80292322	     92.78082817	      9.35477607	     -8.10093000	      4.01360108	     25.20012768	     95.89626245
      0.10000000	     -1.24432560	      1.58369062	     12.18299787	     -0.08710738	      1.30640372	      0.34362610	      3.83349510	     -4.79668182	      4.61541939	      7.78700200	      0.13590882	      7.60812596	     -8.80268964	     -7.38534942	      3.89630029	      0.02788561	      0.68600874	      6.18133333	      0.10788462	      7.79073243	     -5.25503203	     -7.38534942	    -12.68092048	      0.54930436	      2.55541268	      7.41185063	     -7.86515427	      5.64078826	     25.49623598	     91.70799139	      8.81828299	     -8.23909236	      4.16873868	     25.68206509	     94.89804077
      0.11666670	     -1.61914425	      1.62454348	     12.07945935	     -0.08717695	      1.30607571	      0.34390340	      4.56898374	     -4.94156026	      4.56930523	      8.47345879	      0.14788975	      7.95840500	     -8.18466423	     -7.39466682	      4.51328383	      0.13395910	      0.42049921	      6.66402757	      0.11630922	      8.00750577	     -4.83282149	     -7.39466682	    -12.42913267	      0.44493289	      2.58381050	      7.49425797	     -7.83356619	      6.10645797	     25.64356985	     90.82632603	      8.51503588	     -8.39671521	      4.80958438	     25.68553534	     94.27046633
      0.13333330	     -2.09263924	      1.67082493	     11.81665496	     -0.08745992	      1.30546887	      0.34436314	      5.41380527	     -5.11333965	      4.53273418	      9.09103076	      0.15866842	      8.34151356	     -7.66591244	     -7.41711821	      5.12516327	      0.22061789	      0.07292900	      7.09278907	      0.12379252	      8.30630484	     -4.23976115	     -7.41711821	    -11.96770063	      0.28518013	      2.66309580	      7.54980103	     -7.90769771	      7.49448886	     25.74459568	     88.28097526	      8.25587043	     -8.67214810	      6.39201142	     25.58405769	     92.30755851
      0.15000000	     -2.19497830	      1.73182144	     11.55733119	     -0.08787064	      1.30759297	      0.34440900	      5.65722860	     -5.19759030	      4.57923254	      9.42455118	      0.16448945	      8.67549126	     -7.11234576	     -7.43277545	      5.21460790	      0.23711852	     -0.21366097	      7.32659692	      0.12787324	      8.44362647	     -3.75068704	     -7.43277545	    -11.81363280	      0.17366954	      2.67201583	      7.58375272	     -7.99727152	      8.46637343	     25.65054441	     86.72409095	      8.16214153	     -8.84924352	      7.67013563	     25.36818459	     91.34293542
      0.16666670	     -2.07383404	      1.77766542	     11.35096785	     -0.08834512	      1.30757671	      0.34465916	      5.70789385	     -5.19465034	      4.58872164	      9.89145381	      0.17263844	      9.00558609	     -6.72369138	     -7.44011333	      5.08330982	      0.20297168	     -0.22816941	      7.51367409	      0.13113835	      8.52782597	     -3.64417492	     -7.44011333	    -12.05494330	      0.08337696	      2.61885790	      7.42032996	     -8.01362712	      8.63343411	     26.18175531	     84.88874014	      7.85871510	     -8.98359632	      7.95180803	     25.94595803	     89.69209558
